<svg width="280" height="239" fill="none" xmlns="http://www.w3.org/2000/svg"><g clip-path="url(#clip0)"><path d="M58.831 30.387c9.215.62 13.074-5.669 17.398-13.751 11.853-22.123 38.253-19.993 47.108-6.371 6.272 9.65 19.799 7.663 30.737 3.887 10.767-3.716 29.115-7.285 43.734-2.843 12.766 3.882 17.999 17.875 29.639 17.014 25.386-1.877 38.182 23.178 33.581 34.11-3.003 7.132-4.49 15.114-2.053 22.452 2.684 8.082 8.825 14.483 13.787 21.433 4.962 6.949 8.956 15.639 6.49 23.792-2.113 6.979-8.407 11.804-12.313 17.969-12.135 19.155-.13 48.516-16.3 64.486-11.575 11.427-30.442 8.79-46.637 10.973-13.504 1.817-26.211 7.492-39.657 9.71-27.226 4.501-54.718-5.41-82.317-5.693-9.722-.1-19.627.985-29.043-1.41-12.566-3.197-23.256-12.866-27.616-24.966-6.018-16.695-.319-36.021-7.11-52.421C12.727 135.396-.812 124.523.043 110.105c.531-8.979 6.66-16.483 10.879-24.447 6.265-11.828-2.035-58.61 47.91-55.27zm80.341-21.674c-2.425 0-4.384 1.504-4.384 3.357 0 1.852 1.971 3.197 4.384 3.357 7.876.519 7.876-2.661 7.876-4.52 0-2.96-5.457-2.194-7.876-2.194zm79.98 14.324a12.97 12.97 0 007.528 2.92c.732.035 1.528-.012 2.089-.472.696-.572.773-1.746.153-2.401-.389-.413-.956-.596-1.486-.814-.903-.366-1.782-.891-2.295-1.711-.148-.236-.278-.513-.52-.649-1.516-.855-8.241.838-5.469 3.127zm13.416 2.967c.696.242 1.451.018 2.153-.207.449-.147.998-.466.88-.914-.059-.218-.26-.36-.461-.466-.92-.49-2.112-.855-3.032-.224-.926.625-.23 1.575.46 1.811zm32.029 63.282c.118 1.044.767 1.947 1.386 2.796 1.204 1.64 2.425 3.304 4.012 4.584.673.543 1.451 1.027 2.319 1.056.79.03 1.545-.33 2.182-.79a6.956 6.956 0 002.826-4.796c.295-2.596-.914-5.127-2.318-7.34-.873-1.368-1.888-2.736-3.339-3.468-2.443-1.233-4.053-.16-4.738 2.006-.619 1.994-2.584 3.734-2.33 5.952zM4.791 149.755c-1.286 1.132-.124 4.448.254 6.636.112.655.265 1.334.678 1.859.567.713 1.51 1.008 2.39 1.268 1.563.454 3.463.838 4.66-.26.885-.814 1.015-2.147 1.01-3.345 0-1.097-.06-2.188-.178-3.28-.053-.525-.13-1.061-.413-1.51-.36-.572-.997-.902-1.616-1.168-2.236-.944-5.499-1.327-6.785-.2zM83.385 232.8c-.76.153-1.67.483-1.781 1.244-.089.632.436 1.168.95 1.546 4.194 3.132 9.846 3.333 15.097 3.404.613.006 1.25.012 1.81-.224 1.122-.472 1.664-1.953 1.139-3.044-.188-.402-.489-.738-.808-1.045-4.212-4.111-11.15-2.932-16.407-1.881zm104.812-2.118c-4.737 3.463.053 6.56 6.036 4.265 3.221-1.239 6.312-2.46 9.616-3.286 1.068-.266 7.516-1.664 7.516-3.109 0-3.84-7.262-2.932-11.835-2.295-3.687.513-7.427 1.569-11.333 4.425z" fill="#ECF3FF"/><path d="M99.178 220.671c12.593 0 22.802-.954 22.802-2.13s-10.209-2.13-22.802-2.13-22.802.954-22.802 2.13 10.209 2.13 22.802 2.13zM216.314 220.671c12.593 0 22.802-.954 22.802-2.13s-10.209-2.13-22.802-2.13-22.802.954-22.802 2.13 10.209 2.13 22.802 2.13z" fill="#C8DBFB"/><path d="M264.49 68.568a33.235 33.235 0 00-.212-1.162" stroke="#C8DBFB" stroke-linecap="round" stroke-linejoin="round"/><path d="M263.717 65.123c-4.065-13.852-17.038-12.513-28.76-12.489-12.619.024-207.966.43-207.966.43-19.634.042-17.729 28.382-2.36 28.347 8.837-.018 12.2 16.577-3.08 16.607-9.168.017-9.463 11.639-3.298 13.969" stroke="#C8DBFB" stroke-linecap="round" stroke-linejoin="round" stroke-dasharray="3.99 3.99"/><path d="M19.386 112.288c.372.065.767.1 1.18.094" stroke="#C8DBFB" stroke-linecap="round" stroke-linejoin="round"/><path d="M22.973 111.846a2.83 2.83 0 01-2.313 3.262 2.83 2.83 0 01-3.262-2.312 2.832 2.832 0 012.313-3.263 2.833 2.833 0 013.262 2.313zM267.269 69.842a2.822 2.822 0 01-3.286 2.272 2.822 2.822 0 01-2.272-3.286 2.823 2.823 0 013.286-2.272 2.824 2.824 0 012.272 3.286zM51.775 91.21c-.407 2.295-1.003 4.536-1.729 6.749-1.563 4.772-3.722 9.368-5.905 13.904-1.139 2.372-5.758 7.858-8.236 8.902.289-6.188.313-13.415-.407-19.662-.69-6.017 1.475-10.578-.885-16.158-.301-.714-.614-1.428-.926-2.142-1.174-2.654-2.337-5.321-2.702-8.182-.472-3.628.654-7.764 3.793-9.651 2.26-1.357 5.203-1.286 7.616-.219 2.413 1.068 4.348 3.02 5.817 5.21 4.112 6.111 4.856 14.004 3.564 21.249z" fill="#5193F4"/><path d="M40.801 71.17c4.62 6.525 5.021 14.123 5.422 22.105a42.59 42.59 0 01-5.463 23.019" stroke="#0B43A4" stroke-miterlimit="10" stroke-linecap="round" stroke-linejoin="round"/><path d="M40.607 191.504c-3.24-2.861-6.513-5.763-8.909-9.362-2.082-3.132-3.427-6.69-5.244-9.987-1.174-2.13-2.567-4.189-3.245-6.525-.679-2.336-.52-5.109 1.144-6.885 1.735-1.858 4.714-2.141 7.068-1.185 2.354.955 4.153 2.938 5.522 5.073a24.2 24.2 0 013.552 9.398c.46 3.02.342 6.111.814 9.132.436 2.814 1.386 5.516 2.578 8.094 1.08 2.336 3.823 6.507 4.519 8.902-1.941.962-6.419-5.433-7.8-6.655z" fill="#00AD9F"/><path d="M29.285 161.831c3.08 1.345 4.301 5.02 4.944 8.318.732 3.752.567 7.816 2.29 11.232 3.244 6.436 7.462 13.757 10.6 15.946" stroke="#00AD9F" stroke-miterlimit="10" stroke-linecap="round" stroke-linejoin="round"/><path d="M24.672 182.703c-2.684-1.062-6.277-1.499-8 .82-1.44 1.94-.696 4.695.301 6.896.844 1.858 1.912 3.752 3.681 4.761 1.21.69 2.632.896 4.018 1.062a96 96 0 0011.646.672c4.507-.012 9.97 1.829 13.705 4.643-4.79-8.896-16.307-15.285-25.35-18.854z" fill="#0056EC"/><path d="M19.958 188.484c3.422.147 6.873.383 10.153 1.357 3.357.991 16.271 6.92 18.29 9.439" stroke="#0B43A4" stroke-miterlimit="10" stroke-linecap="round" stroke-linejoin="round"/><path d="M53.981 164.438c-3.498-5.474-9.48-9.297-15.917-10.164-4.755-.637-9.646.247-14.342-.738-4.932-1.032-9.38-4.212-11.952-8.548-2.573-4.336-3.245-9.751-1.8-14.583 1.103-3.669 3.623-7.15 7.269-8.324 1.988-.637 4.159-.549 6.188-.065 1.876.448 3.617 1.233 5.221 2.254 3.67 2.324 6.637 5.899 8.867 9.698 2.024 3.451 7.015 8.826 10.413 12.324a190.4 190.4 0 003.44 3.439c2.324 2.903 1.233 11.256 2.613 14.707z" fill="#52D2BC"/><path d="M16.17 132.694c11.428 5.156 23.888 11.917 31.994 21.485" stroke="#00AD9F" stroke-miterlimit="10" stroke-linecap="round" stroke-linejoin="round"/><path opacity=".2" d="M49.261 152.893s-17.026-13.804-20.619-28.617c3.67 2.324 6.637 5.899 8.867 9.698 2.024 3.451 7.015 8.826 10.413 12.324a303.16 303.16 0 011.34 6.595zM50.046 97.959c-1.563 4.772-3.723 9.368-5.905 13.904-1.139 2.372-5.758 7.858-8.236 8.902.289-6.188.312-13.415-.407-19.662-.69-6.017 1.475-10.578-.885-16.158-.301-.714-.614-1.428-.926-2.142.218.071.43.148.637.236 3.882 1.664 5.675 5.77 6.006 9.758.277 3.291-.32 6.59-.762 9.863-.206 1.511-.371 3.056-.047 4.537.006.018.012.029.012.047.407 1.764 2.985 1.664 3.316-.124l1.032-5.48c.307-1.64.643-3.357 1.988-4.501.531-.455 1.215-.738 1.912-.714 1.109.041 1.805.69 2.265 1.534z" fill="#5275A0"/><path d="M49.261 149.436c-2.69-14.046-4.106-16.211-2.92-19.733 1.51-4.489.66-8.997 2.083-13.515 1.422-4.513 2.389-9.369 1.245-13.964-.36-1.451-1.098-3.032-2.844-3.097-.702-.024-1.38.26-1.912.714-1.345 1.144-1.681 2.861-1.988 4.501l-1.026 5.48c-.337 1.782-2.909 1.888-3.316.118-.006-.018-.006-.029-.012-.047-.33-1.481-.159-3.026.042-4.537.442-3.28 1.038-6.572.767-9.87-.33-3.987-2.124-8.093-6.012-9.75a6.861 6.861 0 00-4.383-.349c-4.053 1.038-5.104 5.003-4.508 8.383.42 2.383 1.534 4.572 2.543 6.767 2.466 5.362.655 10.282.997 16.176.944 16.276 21.244 32.723 21.244 32.723z" fill="#7EE8D4"/><path d="M31.173 89.647c2 9.993 4.024 20.057 7.906 29.484 1.138 2.761 1.693 6.401 8.283 13.917" stroke="#00AD9F" stroke-miterlimit="10" stroke-linecap="round" stroke-linejoin="round"/><path d="M109.195 92.207c-2.07-2.366-3.982-4.773-5.994-7.091-1.304-1.505-2.649-2.974-4.112-4.366a41.514 41.514 0 00-2.265-2.023 63.611 63.611 0 00-15.463-9.445c-3.363-1.44-6.914-2.625-9.77-4.92-2.855-2.29-4.908-6.053-3.958-9.586.69-2.55 2.855-4.531 5.339-5.44 2.478-.902 5.227-.831 7.805-.277 7.198 1.552 13.21 6.725 17.298 12.843.07.106.147.218.218.33 2.997 4.572 5.091 9.657 6.914 14.837a258.627 258.627 0 011.687 5.009c.826 2.495 3.363 7.657 2.301 10.129z" fill="#5193F4"/><path d="M76.27 55.07c7.852 1.499 13.41 6.696 19.232 12.17a42.615 42.615 0 0112.024 20.377" stroke="#0B43A4" stroke-miterlimit="10" stroke-linecap="round" stroke-linejoin="round"/><path opacity=".2" d="M103.201 85.116a9.302 9.302 0 00.112 2.454c-1.964-.448-3.327-3.498-4.224-6.82-.879-3.227-1.315-6.72-1.45-8.33a36.038 36.038 0 01.654-10.188c2.997 4.572 5.091 9.657 6.914 14.837a61.215 61.215 0 00-1.604 5.64 16.38 16.38 0 00-.402 2.407z" fill="#5275A0"/><path d="M116.824 56.77c-.667 2.943-2.443 5.486-4.012 8.07a62.597 62.597 0 00-2.319 4.17 63.564 63.564 0 00-5.227 14.289c-.383 1.622-.596 3.215-.289 4.86-3.87-.884-5.416-11.886-5.675-15.155-.466-5.887.537-11.922 2.961-17.314 1.056-2.366 2.425-4.69 4.531-6.206 2.1-1.516 5.074-2.047 7.298-.726 1.339.796 2.201 2.118 2.619 3.622.413 1.404.431 2.968.113 4.39z" fill="#52D2BC"/><path d="M103.502 84.915c-2.407-6.047-.944-18.842 2.915-26.883 1.162-2.425 2.82-4.696 5.138-6.047" stroke="#00AD9F" stroke-miterlimit="10" stroke-linecap="round" stroke-linejoin="round"/><path opacity=".2" d="M116.824 56.77c-.667 2.944-2.443 5.486-4.012 8.07a62.6 62.6 0 00-2.319 4.17c-1.056-1.78-1.781-3.745-1.982-5.798-.324-3.428.985-7.097 3.77-9.115 1.304-.938 2.832-1.474 4.43-1.716.413 1.404.431 2.967.113 4.389z" fill="#5275A0"/><path d="M139.153 82.378a12.424 12.424 0 01-1.003 3.257c-1.716 3.716-5.321 6.902-10.719 9.498 0 0-.301-5.876-.366-7.451-.265-6.737-7.575-10.46-12.2-15.374-2.354-2.507-4.142-5.669-4.472-9.097-.325-3.427.985-7.096 3.77-9.114 2.336-1.687 5.392-2.053 8.271-1.835 4.637.372 9.315 2.313 12.2 5.935.124.136.23.283.337.425 1.764 2.413 2.672 5.35 3.339 8.276 1.156 5.068 1.675 10.342.843 15.48z" fill="#00AD9F"/><path d="M116.157 57.707c5.062 2.62 10.129 5.782 13.073 10.655 4.112 6.802 3.216 15.65.048 22.936" stroke="#00AD9F" stroke-miterlimit="10" stroke-linecap="round" stroke-linejoin="round"/><path d="M223.812 125.827c3.227-5.309 1.576-12.141 2.702-18.247.862-4.696 3.475-9.05 7.216-12.022 2.348-1.865 5.645-3.198 8.294-1.8.573.301 1.257.732 1.812.39.33-.201.46-.614.542-.992.673-3.297-.914-6.902.384-10.01.696-1.676 2.141-2.927 3.669-3.9a20.001 20.001 0 019.894-3.103c.926-.036 1.894 0 2.725.413 1.499.749 2.183 2.619 1.983 4.283-.201 1.663-1.121 3.156-2.136 4.489-3.386 4.43-8.348 8.253-9.003 13.787-.082.696-.082 1.439.236 2.065.313.607.891 1.038 1.216 1.634 1.044 1.917-.974 4.094-2.938 5.032a17.045 17.045 0 01-5.735 1.587c-1.368.13-2.908.159-3.84 1.168-1.717 1.864.253 4.843-.107 7.35-.224 1.564-1.356 2.826-2.501 3.923a45.219 45.219 0 01-6.902 5.446c-2.006 1.286-4.124 2.418-5.9 3.999-1.776 1.581-3.209 3.723-3.327 6.1" fill="#52D2BC"/><path d="M228.06 120.659c.525-2.572 1.723-4.955 2.909-7.297 1.852-3.664 3.74-7.38 6.536-10.383 2.124-2.283 4.714-4.088 6.873-6.336a23.627 23.627 0 003.882-5.392c.561-1.068 1.044-2.189 1.794-3.127.896-1.115 2.118-1.911 3.185-2.867a13.605 13.605 0 003.375-4.654" stroke="#00AD9F" stroke-miterlimit="10" stroke-linecap="round" stroke-linejoin="round"/><path d="M270.13 129.508c-.726 2.797-1.805 5.563-3.658 7.781-1.28 1.528-2.873 2.738-4.613 3.723-.897.513-1.841.962-2.791 1.363a33.524 33.524 0 01-11.663 2.584c-5.829.218-11.823-1.068-17.416.595a17.17 17.17 0 00-6.873 3.982 16.747 16.747 0 00-3.085 3.9l.761-4.837c1.41-5.204 2.849-10.501 5.728-15.062 1.859-2.955 4.272-5.527 6.838-7.893 4.1-3.787 8.649-7.12 13.669-9.557 4.059-1.97 8.566-3.356 13.05-2.808 4.478.543 8.879 3.375 10.277 7.663.897 2.755.508 5.764-.224 8.566z" fill="#5193F4"/><path d="M224.603 144.917c4.283-6.336 10.696-11.208 17.952-13.627 4.519-1.51 9.304-2.083 13.882-3.404 4.578-1.322 9.15-3.563 11.835-7.504" stroke="#0B43A4" stroke-miterlimit="10" stroke-linecap="round" stroke-linejoin="round"/><path d="M227.423 191.386c.254-6.507 3.616-12.512 7.705-17.585 3.404-4.23 7.516-8.1 12.595-10.029 1.593-.602 3.339-1.009 4.991-.602 1.652.407 3.151 1.817 3.18 3.522.024 1.433-.938 2.69-1.953 3.705-3.339 3.345-7.651 5.486-11.698 7.928-6.95 4.201-13.558 9.805-16.313 17.445" fill="#52D2BC"/><path d="M229.995 185.694c4.248-9.475 15.245-17.946 22.495-19.002" stroke="#00AD9F" stroke-miterlimit="10" stroke-linecap="round" stroke-linejoin="round"/><path d="M224.768 196.56c-.059-1.091 3.499-3.941 4.301-4.666a41.104 41.104 0 0115.292-8.737c2.253-.708 4.654-1.221 6.908-.679 2.26.543 4.33 2.396 4.549 4.826.212 2.36-1.369 4.672-3.393 5.811-2.023 1.144-4.383 1.316-6.637 1.186-3.48-.201-6.902-1.068-10.395-1.044-3.498.029-8.407.383-10.625 3.303z" fill="#00AD9F"/><path d="M228.39 193.251c7.145-3.87 17.947-6.389 25.793-5.44" stroke="#00AD9F" stroke-miterlimit="10" stroke-linecap="round" stroke-linejoin="round"/><path opacity=".2" d="M139.153 82.378a12.464 12.464 0 01-1.003 3.257c-2.507-5.315-4.713-12.253-5.244-20.772-.142-2.306.501-4.678 1.728-6.666.124.136.23.283.337.425 1.763 2.413 2.672 5.35 3.339 8.277 1.156 5.067 1.675 10.341.843 15.48z" fill="#5275A0"/><path d="M163.867 82.078c5.333-1.894 10.879-3.404 15.728-6.33 1.469-.885 2.879-1.912 3.923-3.269 1.039-1.356 1.682-3.09 1.452-4.79-.236-1.722-1.34-3.374-.968-5.08.248-1.12 1.086-1.993 1.729-2.949 1.528-2.26 1.982-5.215 1.209-7.834-.838-2.808-2.944-5.062-4.142-7.734a12.928 12.928 0 01-.997-7.02c-4.477.058-8.56 2.507-12.961 3.32-3.369.626-6.867.284-10.206 1.05-6.083 1.4-11.062 6.756-12.006 12.926-2.82-.483-5.858.531-7.823 2.62-2.082 2.218-3.256 5.374-3.067 8.412 1.374 22.081 14.017 33.597 14.017 33.597s12.076-16.194 14.112-16.92z" fill="#7EE8D4"/><path d="M151.932 81.924c-.555-5.445 1.351-10.831 3.534-15.851 2.129-4.89 4.584-9.687 7.876-13.887 3.291-4.2 7.474-7.8 12.412-9.829M156.681 45.702c-.561 4.855-.165 10.708 1.097 15.427M158.687 59.389c5.545-3.558 14.076-5.717 20.654-5.34M145.124 60.297c6.678 2.814 6.949 12.63 7.132 15.421M154.073 69.477c5.109-3.664 12.49-4.767 17.923-3.398M168.014 43.177c-1.534 1.894-1.917 4.148-1.764 5.71M167.701 47.502c2.354-1.204 5.505-1.481 8.873-.638" stroke="#00AD9F" stroke-miterlimit="10" stroke-linecap="round" stroke-linejoin="round"/><path d="M36.341 58.185c.626-.035 4.909-3.203 6.555-4.27.466-.302.932-.614 1.256-1.063.325-.448.478-1.062.242-1.563-.295-.62-.779-1.239-2-1.239-2.13.006-2.873.708-3.911 1.776-3.428 3.545-2.142 6.36-2.142 6.36zM55.533 70.97c1.864.837 3.852 1.669 5.882 1.409.784-.1 1.646-.46 1.905-1.204.224-.637-.082-1.374-.59-1.822-.507-.449-1.174-.667-1.834-.826-2.478-.608-5.965-.272-8.42.424-.005 0 1.942 1.517 3.057 2.018zM67.804 43.443c-.832-.525-1.752-1.227-1.746-2.212 0-.986 1.026-1.735 2.011-1.74.986-.007 1.9.53 2.643 1.185 3.133 2.755 2.744 5.893 2.744 5.893s-4.726-2.542-5.652-3.126zM70.276 35.048c-.732-.313-1.481-.69-1.912-1.363-.206-.324-.324-.737-.2-1.103.212-.608.596-1.156 2.135-.879 4.867.885 5.93 4.218 5.93 4.218s-4.661-.318-5.953-.873zM84.535 42.422c1.953-.17 3.97-1.138 5.198-2.666.466-.578.89-1.21 1.044-1.935.153-.726-.012-1.552-.573-2.036-.684-.59-1.77-.495-2.519 0-.755.496-1.239 1.31-1.628 2.118-.519 1.086-1.522 4.52-1.522 4.52z" fill="#4A49CA"/><path d="M49.675 113.604l-14.183-12.501c-2.52-2.218-5.091-4.507-6.684-7.463-3.428-6.353-1.452-14.606 3.18-20.146 4.63-5.54 11.415-8.808 18.235-11.185 6.814-2.377 13.911-4.047 20.407-7.197 4.076-1.977 8.17-4.914 9.292-9.303.672-2.637.106-5.57-1.499-7.764-1.605-2.2-4.224-3.628-6.944-3.787M87.839 37.892c-1.292 3.964-6.325 6.377-8.62 9.816" stroke="#0B43A4" stroke-miterlimit="10" stroke-linecap="round" stroke-linejoin="round"/><path d="M69.774 42.452c.991 1.044 2.177 1.911 3.044 3.061 1.83 2.437 1.977 6.395-.725 8.85M44.318 64.657c4.17 3.215 9.651 5.356 14.914 5.557M34.772 70.509c-1.923-5.663.171-12.448 4.95-16.04" stroke="#0B43A4" stroke-miterlimit="10" stroke-linecap="round" stroke-linejoin="round"/><path d="M187.223 46.581c-.224-.702-.212-1.563.301-2.088.413-.413 1.097-.602 1.634-.366 4.148 1.823 3.699 8.294 3.699 8.294s-3.929-.566-5.634-5.84zM187.123 58.704c-2.684 4.85 6.849 4.478 10.289 1.623 0 0-7.976-5.8-10.289-1.623zM199.182 46.953c-.649-.885-.879-2.207-.171-3.05.525-.625 1.439-.82 2.241-.667.803.154 2.006.897 2.52 1.534 3.138 3.905 1.663 7.722 1.663 7.722s-5.197-4.088-6.253-5.54zM237.045 58.958c-.23-.755-.177-1.675.407-2.206.372-.337.897-.455 1.393-.42.495.036.973.22 1.427.426.974.442 1.729 1.22 2.195 2.182 1.18 2.43.377 5.434.377 5.434s-5.221-3.534-5.799-5.416zM225.134 67.854c-1.687-1.48-4.265-1.917-6.324-1.014-.525.23-1.021.554-1.351 1.014-.756 1.044-.49 2.566.295 3.587.778 1.02 1.964 1.64 3.138 2.17 2.124.962 5.416 1.157 7.676 1.735-.006-.006-.012-4.49-3.434-7.492z" fill="#4A49CA"/><path d="M190.197 47.625c1.404 4.59 5.374 8.059 9.793 9.929 4.419 1.876 9.286 2.371 14.082 2.678 4.791.313 9.64.466 14.271 1.723 4.514 1.227 9.015 3.775 10.95 8.035 2.36 5.185.271 11.38-3.044 16.017-3.31 4.63-7.77 8.365-10.973 13.072-1.469 2.16-2.702 4.696-2.402 7.292.396 3.463 3.316 6.011 6.024 8.206M201.241 45.938c3.174 3.51 5.71 9.002 6.33 13.698" stroke="#0B43A4" stroke-miterlimit="10" stroke-linecap="round" stroke-linejoin="round"/><path d="M190.562 59.507c1.817.483 3.658.967 5.534.973 1.876.006 4.053-1.038 5.404-2.342M240.154 59.241a9.38 9.38 0 012.826 6.318c.089 2.366-1.221 5.227-2.796 6.991M222.355 69.966c3.398 3.127 6.354 5.658 10.13 8.312 1.722 1.216 5.144 2.767 6.666 2.366" stroke="#0B43A4" stroke-miterlimit="10" stroke-linecap="round" stroke-linejoin="round"/><path opacity=".2" d="M261.861 141.012c-.897.513-1.841.962-2.791 1.363a33.524 33.524 0 01-11.663 2.584c-5.829.218-11.823-1.068-17.416.596a17.158 17.158 0 00-6.873 3.982c-.194.094-.389.2-.584.312-.466-3.946 9.375-9.091 12.366-10.43 5.398-2.419 11.415-3.492 17.315-3.02 2.584.206 5.233.714 7.363 2.182a7.898 7.898 0 012.283 2.431z" fill="#5275A0"/><path d="M252.207 138.758c2.584.207 5.233.714 7.363 2.183 2.129 1.469 3.634 4.094 3.138 6.637-.578 2.961-3.64 4.89-6.637 5.25-2.997.366-5.988-.46-8.944-1.067a63.676 63.676 0 00-19.928-.909c-1.658.183-3.227.513-4.673 1.363-.466-3.947 9.381-9.091 12.372-10.43 5.398-2.425 11.415-3.499 17.309-3.027z" fill="#52D2BC"/><path d="M225.087 149.725c4.885-4.294 17.433-7.209 26.306-6.271 2.672.284 5.369 1.08 7.422 2.814" stroke="#00AD9F" stroke-miterlimit="10" stroke-linecap="round" stroke-linejoin="round"/><path d="M215.96 101.469l47.722-.101c5.598-.011 10.147 4.519 10.159 10.118.012 5.598-4.519 10.147-10.118 10.158l-32.642.065M71.574 136.505l-33.374.071a5.72 5.72 0 00-5.711 5.734 5.72 5.72 0 005.734 5.71l9.729-.017" stroke="#0B43A4" stroke-miterlimit="10" stroke-linecap="round" stroke-linejoin="round" stroke-dasharray="4 4"/><path d="M18.306 162.344c-11.433.024-11.669 17.079 2.873 17.043 14.549-.029 205.383-.425 214.379-.442 8.997-.018 9.947-14.058-1.174-14.035-22.141.047-22.872-10.512-10.583-10.536" stroke="#C8DBFB" stroke-miterlimit="10" stroke-linecap="round" stroke-linejoin="round" stroke-dasharray="4 4"/><path d="M20.979 161.872a2.83 2.83 0 01-2.313 3.262 2.83 2.83 0 01-3.262-2.312 2.828 2.828 0 015.575-.95z" fill="#5193F4"/><path d="M229.287 154.451a2.83 2.83 0 01-2.312 3.262 2.832 2.832 0 01-3.263-2.312 2.832 2.832 0 012.313-3.263 2.836 2.836 0 013.262 2.313z" fill="#0B43A4"/><path opacity=".2" d="M232.361 203.757l-177.513.366a4.284 4.284 0 01-4.294-4.277l-.242-117.592a4.284 4.284 0 014.277-4.294l177.512-.366a4.284 4.284 0 014.295 4.277l.242 117.592a4.283 4.283 0 01-4.277 4.294z" fill="#5275A0"/><path d="M228.886 201.511l-177.512.366a4.284 4.284 0 01-4.295-4.277l-.242-117.592a4.284 4.284 0 014.277-4.295l177.512-.365a4.284 4.284 0 014.295 4.277l.242 117.591a4.287 4.287 0 01-4.277 4.295z" fill="#fff"/><path d="M228.338 75.34l-176.752.366a4.674 4.674 0 00-4.66 4.678l.006 4.06 186.09-.384-.006-4.059a4.67 4.67 0 00-4.678-4.66z" fill="#0056EC"/><path d="M51.798 201.876l26.708-.054-.242-117.444-31.374.065.23 112.784a4.665 4.665 0 004.678 4.649z" fill="#C8DBFB"/><path d="M228.679 76.52a3.115 3.115 0 013.109 3.104l.242 117.591c0 .832-.318 1.611-.908 2.2a3.065 3.065 0 01-2.195.915l-177.518.366a3.116 3.116 0 01-3.11-3.103l-.241-117.592c0-.832.318-1.61.908-2.2a3.065 3.065 0 012.195-.915l177.507-.366h.011zm0-1.18h-.011l-177.513.366a4.288 4.288 0 00-4.277 4.295l.242 117.592a4.287 4.287 0 004.289 4.277h.011l177.513-.366a4.287 4.287 0 004.277-4.295l-.242-117.591a4.286 4.286 0 00-4.289-4.277z" fill="#0056EC"/><path d="M73.999 192.897l-20.584.041a1.642 1.642 0 01-1.646-1.64v-.206c0-.909.732-1.646 1.64-1.646l20.584-.042c.908 0 1.646.732 1.646 1.64v.207a1.638 1.638 0 01-1.64 1.646zM71.527 113.22l-17.522.036a3.016 3.016 0 01-3.02-3.009l-.036-17.521a3.016 3.016 0 013.009-3.02l17.521-.036A3.016 3.016 0 0174.5 92.68l.035 17.521a3.012 3.012 0 01-3.008 3.02z" fill="#fff"/><path d="M146.54 165.707l-61.05.124a2.152 2.152 0 01-2.152-2.142v-.265c0-1.186.955-2.148 2.141-2.154l61.049-.124c1.186 0 2.147.956 2.153 2.142v.265a2.144 2.144 0 01-2.141 2.154zM143.012 96.153l-48.241.1a2.151 2.151 0 01-2.153-2.14v-.266c0-1.186.955-2.148 2.141-2.153l48.241-.1c1.186 0 2.147.955 2.153 2.14V94a2.143 2.143 0 01-2.141 2.153zM219.276 144.947l-64.323.136a2.152 2.152 0 01-2.154-2.142v-.265c0-1.186.956-2.148 2.142-2.154l64.323-.129a2.15 2.15 0 012.153 2.141v.266a2.15 2.15 0 01-2.141 2.147zM146.557 175.14l-61.048.124a2.152 2.152 0 01-2.154-2.142v-.265c0-1.186.956-2.148 2.142-2.154l61.049-.123c1.185 0 2.147.955 2.153 2.141v.266a2.148 2.148 0 01-2.142 2.153zM146.575 184.567l-61.049.124a2.152 2.152 0 01-2.153-2.142v-.265a2.15 2.15 0 012.141-2.153l61.049-.124c1.186 0 2.148.955 2.154 2.141v.266a2.144 2.144 0 01-2.142 2.153zM217.966 190.714l-61.527.13a3.54 3.54 0 01-3.551-3.54l-.054-26.423a3.542 3.542 0 013.54-3.551l61.527-.13a3.541 3.541 0 013.552 3.539l.053 26.424a3.541 3.541 0 01-3.54 3.551zM57.132 79.977a1.502 1.502 0 11-3.004.005 1.502 1.502 0 013.004-.005zM61.999 81.476a1.504 1.504 0 100-3.009 1.504 1.504 0 000 3.009zM69.869 79.954a1.502 1.502 0 11-3.004.005 1.502 1.502 0 013.004-.005zM90.256 94.434a4.348 4.348 0 10-8.652-.867 4.348 4.348 0 008.652.867z" fill="#C8DBFB"/><path d="M72.748 116.895l-19.262.042a.815.815 0 01-.814-.808v-.101c0-.448.36-.808.808-.814l19.262-.041c.448 0 .808.36.814.808v.1a.81.81 0 01-.808.814zM72.754 120.577l-19.263.041a.815.815 0 01-.814-.808v-.1c0-.449.36-.809.809-.815l19.262-.041c.448 0 .808.36.814.808v.101c0 .448-.36.808-.808.814z" fill="#fff"/><path d="M94.806 128.352l-5.445.053.041 22.819-4.702.012a3.004 3.004 0 01-3.008-2.997l-.089-42.198a3.027 3.027 0 013.026-3.038l10.118-.024.06 25.373z" fill="#C8DBFB"/><path d="M130.139 102.908v.59a2.957 2.957 0 012.956 2.95l.082 41.142a2.961 2.961 0 01-2.95 2.967l-44.996.095a2.956 2.956 0 01-2.955-2.95l-.083-41.142a2.958 2.958 0 012.95-2.967l44.99-.095.006-.59zm0 0h-.006l-44.99.095a3.544 3.544 0 00-3.54 3.551l.083 41.142a3.548 3.548 0 003.545 3.54h.006l44.99-.095a3.545 3.545 0 003.54-3.551l-.082-41.142a3.536 3.536 0 00-3.546-3.54zM205.264 136.764l-60.01-13.562a3.548 3.548 0 01-2.679-4.242l6.749-29.868a3.548 3.548 0 014.242-2.678l60.011 13.562a3.547 3.547 0 012.678 4.242l-6.749 29.868a3.542 3.542 0 01-4.242 2.678z" fill="#C8DBFB"/><path d="M89.125 217.998l-8.395.018-2.059-10.695 12.466-.024-2.012 10.701z" fill="#0056EC"/><path d="M80.995 207.315c0 .873-.165 2.336.42 2.359.583.024.341-1.392 1.002-1.351.425.024-.194 4.649 1.404 4.761 1.098.077.897-2.265 1.01-3.734.076-.991 1.344-.797 1.356-.142.012.738-.035 1.227 0 2.065.06 1.398 2.207 1.027 2.13-.838-.077-1.864-.006-3.126-.006-3.126l-7.316.006z" fill="#C8DBFB"/><path d="M78.99 213.775c-.171 0-.337-.018-.496-.053-.62-.136-1.05-.461-1.292-.968-.855-1.817 1.398-5.215 1.487-5.368l.118.613c-.018.036-1.983 2.956-1.21 4.59.183.389.508.631.997.737.136.03.278.042.42.042 3.026-.006 8.194-5.64 8.253-5.705.212-.254.607-.012.466.201-.242.271-5.493 5.905-8.743 5.911z" fill="#0C2340"/><path opacity=".2" d="M167.224 67.488c-11.935-.454-28.366 8.372-22.537 29.951-.124 1.823.968 3.127 2.13 2.773 1.162-.354.136-3.817.136-3.817 1.988-16.046 5.705-18.819 12.011-18.76l14.802-.03c3.658.538 10.307 3.098 11.304 15.94l3.687.68c.289-9.28-1.953-25.987-21.533-26.737z" fill="#5275A0"/><path d="M167.224 65.607c-11.935-.455-28.366 8.37-22.537 29.95l2.266-1.044c1.988-16.046 5.705-18.819 12.011-18.76l14.802-.029c3.658.537 10.484 3.787 11.481 16.63l3.504-.006c.295-9.285-1.947-25.992-21.527-26.741z" fill="#EF832B"/><path d="M164.781 65.96l-1.77 3.894s.213 2.195 2.366 2.147c2.153-.047 2.443-1.038 2.443-1.038l.283-4.471-3.322-.531z" fill="#FFB9A3"/><path d="M173.896 62.71c-2.018 3.57-2.914 4.684-5.557 5.221-3.422.696-7.257-1.61-5.475-7.297 1.451-4.637 3.658-3.923 5.811-3.747 2.153.172 7.404 1.965 5.221 5.823z" fill="#FFB9A3"/><path d="M165.861 59.89c-.537-.277-1.227-.041-1.646.395-.431.455-.637 1.127-.454 1.723-.826.012-1.552.82-1.475 1.646-.567-1.316-.26-2.69-.372-4.041-.112-1.351.035-2.814.909-3.846.359-.425.82-.75 1.309-1.01 1.859-.99 4.201-1.02 6.089-.088.389.195 1.368.808 2.737.478 2.608-.631 4.13 1.133 2.566 2.785.502.182 1.056.407 1.281.89.059.124.088.278.011.39-.053.076-.147.118-.241.147a2.856 2.856 0 01-1.375.106c.177.148 1.144.207 1.434.773.778 1.499-2.301.743-2.773.59.537.1 1.941 1.221 1.492 1.994-.088.153-1.988 1.257-3.982-1.062-.466-.537-1.044-1.038-1.728-1.22-.537-.142-1.104.052-1.629.253-.383.141-1.357.737-1.634.383-.289-.377.106-.973-.519-1.286z" fill="#0C2340"/><path d="M185.63 92.348c-.531 1.823-1.062 2-.424 2.29.643.288 1.162-.732 1.162-.732l2.961.59s-.666-1.923-1.132-2.154c-.466-.23-2.567.006-2.567.006zM146.953 94.513c.389.962.495.968 1.032 2.124 1.033 2.206-1.38 5.693-2.879 1.888-.413-1.044-.419-2.962-.419-2.962l2.266-1.05z" fill="#FFB9A3"/><path d="M170.079 54.982c2.024.112 4.513-1.316 6.1.513.148.171.443-.053.313-.242-1.516-2.177-4.33-.554-6.407-.613-.224 0-.218.33-.006.342zM170.893 53.867c-1.38.242-2.714-.413-4.1-.195-1.127.177-2.13.755-2.979 1.493-.219.189.065.56.312.4 1.192-.784 2.337-1.462 3.823-1.35 1.08.077 1.994.401 3.068.077.271-.083.153-.472-.124-.425zM163.023 55.755c-.973.607-1.534 1.415-1.652 2.578-.082.837-.106 2.755.738 3.227.2.112.413-.154.248-.325-.543-.548-.59-2.03-.549-2.725.059-1.068.507-1.882 1.357-2.52.135-.1.012-.33-.142-.235zM177.99 59.076c-.501-.867-1.781-1.634-2.767-1.086-.153.089-.082.325.089.325.431.006.826-.047 1.245.083.478.147.879.424 1.162.831.118.166.372.024.271-.153z" fill="#0C2340"/><path d="M112.34 149.071c6.259 2.3 11.693 9.474 10.442 14.695-1.41 5.893-5.475 8.436-5.475 8.436l-1.28-2.366s3.251-5.079 2.968-7.48c-.455-3.841-5.304-6.413-5.304-6.413l-1.351-6.872z" fill="#0B43A4"/><path d="M96.936 215.568s-3.84 1.551-4.802 2.43l7.61-.017-.006-2.419-2.802.006zM113.756 215.42s1.091 1.263 1.292 2.531l-5.192.012c.089-.873.46-1.717.968-2.537l2.932-.006z" fill="#0C2340"/><path d="M114.074 215.532l-3.545.006c.07-4.176-.791-18.412-1.623-29.054-.489-6.241-.973-11.256-1.256-12.271l1.899-.418 7.168-1.593c1.227 5.604-1.604 31.337-2.643 43.33z" fill="#047F76"/><path d="M101.042 173.989c-2.767 4.354-3.48 35.833-4.637 41.667l3.363.189s3.864-19.845 12.088-42.157l-10.814.301z" fill="#009790"/><path opacity=".2" d="M113.272 173.688a288.51 288.51 0 00-4.366 12.796c-.489-6.241-.973-11.256-1.256-12.27l1.899-.419 3.723-.107z" fill="#5275A0"/><path d="M101.042 173.989c-2.767 4.354-3.48 35.833-4.637 41.667l3.363.189s3.864-19.845 12.088-42.157l-10.814.301z" fill="#009790"/><path d="M103.154 138.847s-2.153 8.2 3.227 8.194l-.318 2.094 4.082.449-.885-2.92s.809-5.156.862-6.089c.1-1.74-4.773-4.802-6.968-1.728z" fill="#FFB9A3"/><path d="M89.856 129.654l-1.587.004.013 6.695 1.587-.003-.013-6.696z" fill="#0C2340"/><path d="M93.609 129.644l-9.097.018a1.154 1.154 0 01-1.157-1.151v-.236c0-.637.513-1.156 1.15-1.156l9.098-.018c.637 0 1.156.514 1.156 1.151v.236a1.15 1.15 0 01-1.15 1.156z" fill="#0056EC"/><path d="M87.845 138.098c-.041-1.516-1.298-1.121-.608-3.599.425-1.534 3.593.248 3.198 1.31s-.85 2.743-.85 2.743l-1.74-.454z" fill="#FFB9A3"/><path d="M106.417 148.657c-8.041.531-8.572 3.245-12.171 2.82-5.327-.625-4.395-10.518-3.734-14.064l-3.18.006s-5.735 22.53 12.377 18.365c-.696 3.947 3.811 10.395-.56 18.217 6.872 1.87 13.291 2.324 18.784-.035-.962-1.298 1.97-14.389-3.77-23.81-1.121-1.847-7.156-1.54-7.746-1.499z" fill="#0056EC"/><path d="M106.417 148.657c-8.041.531-8.572 3.245-12.171 2.82-5.327-.625-4.395-10.518-3.734-14.064l-3.18.006s-5.735 22.53 12.377 18.365c-.696 3.947 3.811 10.395-.56 18.217 6.872 1.87 13.291 2.324 18.784-.035-.962-1.298 1.97-14.389-3.77-23.81-1.121-1.847-7.156-1.54-7.746-1.499z" fill="#0056EC"/><path d="M105.308 140.422c.525.136 1.132.236 1.416.679.182.289.171.648.153.985.094-.354.49-.608.861-.561.378.042.696.378.702.744.006.171-.053.336-.118.495-.159.401-.36.779-.596 1.139.655.242 1.21 2.165 1.534 2.761 1.104-.278 3.564-1.227 3.776-5.139.1-1.823-.454-4.005-2.431-5.215-1.398-.855-3.71-.867-5.309-.46-1.298.33-3.363 1.628-2.401 3.139.483.761 1.545 1.209 2.413 1.433z" fill="#EF832B"/><path d="M112.198 137.933c.749-.248 1.699-.118 2.148.507.348.49.318 1.127.43 1.711.053.283.154.566.372.761.26.23.637.289.991.306.867.048 1.741-.064 2.596.083.855.148 1.729.625 1.97 1.422.136.442.059.926.225 1.357.242.649.932 1.02 1.534 1.398a9.984 9.984 0 013.156 3.144c.501.797.885 1.681.944 2.608.059.926.731 2.153.548 3.061-.194.986-1.162 2.319-3.073 2.932-3.304 1.062-4.354 1.522-7.522-.359-.384-.225-1.127-.997-1.475-1.275-.272-.218-.443-.531-.537-.855-.266-.909.041-1.888.513-2.714.472-.826 1.115-1.557 1.599-2.377.289-.496.525-1.044.501-1.611-.011-.212-.064-.43-.218-.584-.135-.13-.324-.195-.513-.23-.696-.136-1.463.006-2.089-.307-.613-.301-.949-1.044-.761-1.681.124-.425.449-.785.537-1.215.13-.626-.259-1.263-.802-1.628-.543-.366-1.209-.508-1.864-.614-.325-.053-.661-.106-.921-.295-.324-.23-.472-.637-.466-1.021.024-1.227 1.021-2.141 2.177-2.524z" fill="#EF832B"/><path d="M111.602 141.23c3.977.862-1.044 4.631 1.062 6.436.602.514 1.298.354 2 .449 2.702.371 1.221 2.206 1.039 3.646-.03.218.33.259.377.053.23-.991 1.139-2.207.673-3.263-.413-.932-1.44-.82-2.283-.849-1.056-.03-2.219 0-1.823-2.094.088-.466.46-.938.643-1.381.206-.507.348-1.009.236-1.563-.195-.938-.974-1.487-1.871-1.634-.129-.03-.188.171-.053.2zM103.408 136.357c3.068-1.557 6.124-1.244 8.714 1.039.177.153.413-.083.259-.26-2.271-2.56-6.312-3.008-9.056-.926-.088.071-.017.201.083.147z" fill="#EF832B"/><path d="M206.45 145.979l-1.327 2.679 3.244 1.327.348-3.08-2.265-.926z" fill="#FFB9A3"/><path d="M208.409 137.278c-7.369 3.209-4.348 10.984.135 10.07 2.183-.443 3.286-7.475 3.286-7.475l-3.421-2.595z" fill="#FFB9A3"/><path d="M210.857 136.174c-.242-.448-.472-.932-.873-1.25-.401-.319-1.033-.425-1.404-.077-.496.46-.207 1.322.295 1.776-.431.053-.944-.248-1.263.053-.242.224-.159.625-.017.926a4.08 4.08 0 001.51 1.729c-.372.212-.808.625-.584.991.065.1.165.171.23.271.141.236.006.543-.142.779-.23.383-.484.755-.749 1.115.254-.348.873-.207 1.056.183.183.389.024.867-.265 1.185-.16.177-.36.325-.596.378-.201.047-1.098 2.808-.401 3.351.861.666 3.787.088 4.212-.667.425.46 1.044.808 1.658.685.613-.124 1.079-.879.749-1.41a1.78 1.78 0 001.923-.514 1.767 1.767 0 00.159-1.982c.36-.106.437-.596.343-.961a2.24 2.24 0 00-1.528-1.57c.371.006.666-.371.684-.743.018-.372-.177-.726-.413-1.015-.69-.855-1.51-1.079-2.531-1.209-1.026-.124-1.593-1.174-2.053-2.024z" fill="#4A49CA"/><path d="M203.954 215.06s-4.312 2.071-4.89 2.714c0 0 8.483.384 9.15-.018.667-.401-1.357-2.701-1.357-2.701l-2.903.005zM219.995 212.718s-3.787 2.921-4.224 3.67c0 0 8.944-1.327 8.944-1.912 0-.584-1.888-2.365-1.888-2.365l-2.832.607z" fill="#0C2340"/><path d="M208.119 175.081c-.159.879-6.064 24.181 10.832 38.157l4.891-1.121s-5.693-5.339-8.378-14.955c-2.536-9.091-.525-9.982.997-14.984 1.688-5.54.431-9.563.431-9.563l-8.773 2.466z" fill="#D8742A"/><path d="M200.049 175.01c-2.678 6.401-7.274 28.211 2.743 40.487l5.003-.012s-3.941-4.318-4.383-14.341c-.443-10.023 2.106-14.424 3.905-17.728 1.8-3.309 3.463-8.925 3.463-8.925l-10.731.519z" fill="#EF832B"/><path d="M196.521 135.337c-1.327 4.684-1.764 13.344 4.891 16.831l4.454-1.086s-8.035-4.212-6.313-14.854l-3.032-.891z" fill="#0B43A4"/><path d="M184.244 132.942l3.457-.425s-.419 14.524 16.36 15.751c12.808.932 13.811 24.966 13.811 24.966-4.13 2.779-11.056 3.622-19.935 2.985 0 0 .566-17.143-.844-21.839 0-.006-13.94-4.389-12.849-21.438z" fill="#0056EC"/><path d="M180.014 130.305c-.584.678 1.858 1.539 4.23 2.637l3.038-.372s.036-.608 0-1.239c-.035-.631-.354-.991-.714-.448-.36.543-1.893.725-2.619.23-.732-.502-3.351-1.487-3.935-.808zM196.521 135.337c-1.115-1.092-.814-1.027-.814-1.027l3.392.767s.744-1.658 1.381-1.699c.631-.047-.478 1.139-.225 1.581.254.443-.696 1.275-.696 1.275l-3.038-.897z" fill="#FFB9A3"/><path d="M212.763 137.773c.696.177 1.404.248 1.982.726.572.472.832 1.28.419 1.935-.195.307.265.549.472.277.525-.69.383-1.634-.148-2.289-.613-.749-1.752-1.062-2.684-.961-.165.017-.224.265-.041.312zM215.83 144.068c.46.271.844.708.649 1.28-.183.525-.714.838-1.144 1.139-.207.147-.03.46.2.342.637-.337 1.31-.808 1.41-1.587.089-.679-.365-1.192-.932-1.499-.206-.106-.383.201-.183.325zM208.084 147.584c1.563.973 3.776.814 5.068-.555.159-.171-.059-.489-.26-.336-1.416 1.05-3.02 1.386-4.678.673-.148-.065-.272.129-.13.218z" fill="#4A49CA"/><path d="M216.037 138.8c.897.855 0 2.023-.578 2.755-.13.159.07.377.23.23.513-.478 1.026-1.009 1.097-1.741.053-.554-.177-1.079-.667-1.35-.064-.036-.141.053-.082.106z" fill="#4A49CA"/><path d="M116.24 31.03l-1.381-3.38 13.351-5.073-11.97 8.453z" fill="#0B43A4"/><path d="M116.912 28.942l11.298-6.365-7.864 7.987-3.434-1.622zM111.803 26.27l16.407-3.693-13.351 5.073-3.056-1.38z" fill="#5193F4"/><path d="M116.912 28.942l-.672 2.088 2.041-1.439-1.369-.649z" fill="#0056EC"/><path d="M114.67 30.576c-3.487-.59-8.218 2.938-6.183 6.608.691 1.25 4.266.708 4-.673-.13-.66-.938-.944-1.604-.867-3.894.448-4.053 3.71-3.876 4.542.89 4.295 7.474 2.844 9.687 2.236" stroke="#C8DBFB" stroke-miterlimit="10" stroke-linecap="round" stroke-linejoin="round" stroke-dasharray="4 4"/></g><defs><clipPath id="clip0"><path fill="#fff" d="M0 0h280v239H0z"/></clipPath></defs></svg>